<svg xmlns="http://www.w3.org/2000/svg" width="161.928" height="52.096" viewBox="0 0 161.928 52.096"><defs><style>.a,.c{fill:#fff;}.b{fill:#fe7b20;}.c,.d{fill-rule:evenodd;}.d{fill:#ff7b00;}</style></defs><g transform="translate(-306 -27)"><path class="a" d="M6.2,10.792C6.2,7.672,1.6,9.16,1.6,6.736a1.579,1.579,0,0,1,1.8-1.5A1.715,1.715,0,0,1,5.22,6.556h.912a2.447,2.447,0,0,0-2.7-2.04c-1.62,0-2.688.948-2.688,2.244,0,3.156,4.608,1.6,4.608,4.068,0,.864-.684,1.548-1.848,1.548A1.743,1.743,0,0,1,1.56,10.84H.672C.72,12.124,1.824,13.084,3.5,13.084A2.426,2.426,0,0,0,6.2,10.792Zm3.06.432c0,1.308.612,1.776,1.752,1.776h.9v-.72h-.768c-.756,0-1.032-.252-1.032-1.056V7.156h1.8V6.448h-1.8V4.8H9.264V6.448H8.352v.708h.912ZM15.336,9.34c0-1.644.924-2.136,2.016-2.136h.228V6.328a2.257,2.257,0,0,0-2.244,1.284V6.448H14.5V13h.84Zm7.5-2.268a2.143,2.143,0,0,1,2.28,2.292H20.508A2.262,2.262,0,0,1,22.836,7.072Zm3.036,3.852h-.888a2.029,2.029,0,0,1-2.112,1.464,2.291,2.291,0,0,1-2.364-2.34h5.436a5.744,5.744,0,0,0,.024-.66,2.945,2.945,0,0,0-3.1-3.036,3.1,3.1,0,0,0-3.216,3.372A3.123,3.123,0,0,0,22.872,13.1,2.88,2.88,0,0,0,25.872,10.924Zm7.368.336c-.036-2.316-3.912-1.368-3.912-3.144,0-.576.552-1.044,1.428-1.044A1.4,1.4,0,0,1,32.34,8.356h.84a2.128,2.128,0,0,0-2.4-2c-1.38,0-2.3.8-2.3,1.776,0,2.46,3.936,1.512,3.936,3.132,0,.624-.528,1.128-1.464,1.128-1.068,0-1.692-.516-1.764-1.236H28.32c.108,1.2,1.152,1.944,2.64,1.944C32.316,13.1,33.24,12.316,33.24,11.26Zm7.32,0c-.036-2.316-3.912-1.368-3.912-3.144,0-.576.552-1.044,1.428-1.044A1.4,1.4,0,0,1,39.66,8.356h.84a2.128,2.128,0,0,0-2.4-2c-1.38,0-2.3.8-2.3,1.776,0,2.46,3.936,1.512,3.936,3.132,0,.624-.528,1.128-1.464,1.128-1.068,0-1.692-.516-1.764-1.236H35.64c.108,1.2,1.152,1.944,2.64,1.944C39.636,13.1,40.56,12.316,40.56,11.26Zm5.58-4.188a2.143,2.143,0,0,1,2.28,2.292H43.812A2.262,2.262,0,0,1,46.14,7.072Zm3.036,3.852h-.888a2.029,2.029,0,0,1-2.112,1.464,2.291,2.291,0,0,1-2.364-2.34h5.436a5.744,5.744,0,0,0,.024-.66,2.945,2.945,0,0,0-3.1-3.036A3.1,3.1,0,0,0,42.96,9.724,3.123,3.123,0,0,0,46.176,13.1,2.88,2.88,0,0,0,49.176,10.924Zm2.448-1.212A3.116,3.116,0,0,0,54.756,13.1a2.732,2.732,0,0,0,2.592-1.56V13h.84V4.12h-.84V7.864a2.848,2.848,0,0,0-2.58-1.512A3.1,3.1,0,0,0,51.624,9.712Zm5.724.012a2.444,2.444,0,1,1-4.872-.012,2.392,2.392,0,0,1,2.436-2.628A2.441,2.441,0,0,1,57.348,9.724ZM71.388,13h.888L69.228,4.72H68.28L65.22,13h.888l.732-1.992h3.816ZM70.4,10.312H67.092l1.656-4.536Zm8.952.948c-.036-2.316-3.912-1.368-3.912-3.144,0-.576.552-1.044,1.428-1.044a1.4,1.4,0,0,1,1.584,1.284h.84a2.128,2.128,0,0,0-2.4-2c-1.38,0-2.3.8-2.3,1.776,0,2.46,3.936,1.512,3.936,3.132,0,.624-.528,1.128-1.464,1.128-1.068,0-1.692-.516-1.764-1.236h-.864c.108,1.2,1.152,1.944,2.64,1.944C78.432,13.1,79.356,12.316,79.356,11.26Zm7.32,0c-.036-2.316-3.912-1.368-3.912-3.144,0-.576.552-1.044,1.428-1.044a1.4,1.4,0,0,1,1.584,1.284h.84a2.128,2.128,0,0,0-2.4-2c-1.38,0-2.3.8-2.3,1.776,0,2.46,3.936,1.512,3.936,3.132,0,.624-.528,1.128-1.464,1.128-1.068,0-1.692-.516-1.764-1.236h-.864c.108,1.2,1.152,1.944,2.64,1.944C85.752,13.1,86.676,12.316,86.676,11.26Zm5.58-4.188a2.143,2.143,0,0,1,2.28,2.292H89.928A2.262,2.262,0,0,1,92.256,7.072Zm3.036,3.852H94.4a2.029,2.029,0,0,1-2.112,1.464,2.291,2.291,0,0,1-2.364-2.34h5.436a5.744,5.744,0,0,0,.024-.66,2.945,2.945,0,0,0-3.1-3.036,3.1,3.1,0,0,0-3.216,3.372A3.124,3.124,0,0,0,92.292,13.1,2.88,2.88,0,0,0,95.292,10.924Zm3.072.3c0,1.308.612,1.776,1.752,1.776h.9v-.72h-.768c-.756,0-1.032-.252-1.032-1.056V7.156h1.8V6.448h-1.8V4.8h-.852V6.448h-.912v.708h.912Zm9.768.036c-.036-2.316-3.912-1.368-3.912-3.144,0-.576.552-1.044,1.428-1.044a1.4,1.4,0,0,1,1.584,1.284h.84a2.128,2.128,0,0,0-2.4-2c-1.38,0-2.3.8-2.3,1.776,0,2.46,3.936,1.512,3.936,3.132,0,.624-.528,1.128-1.464,1.128-1.068,0-1.692-.516-1.764-1.236h-.864c.108,1.2,1.152,1.944,2.64,1.944C107.208,13.1,108.132,12.316,108.132,11.26Zm11.784-4.212c0,1.02-.612,1.764-1.98,1.764h-1.692V5.32h1.68C119.34,5.32,119.916,5.992,119.916,7.048ZM115.4,4.612V13h.84V9.5h1.548l2.076,3.5h1.008l-2.16-3.564a2.315,2.315,0,0,0,2.064-2.388c0-1.38-.912-2.436-2.856-2.436Zm11.04,2.46a2.143,2.143,0,0,1,2.28,2.292h-4.608A2.262,2.262,0,0,1,126.444,7.072Zm3.036,3.852h-.888a2.029,2.029,0,0,1-2.112,1.464,2.291,2.291,0,0,1-2.364-2.34h5.436a5.744,5.744,0,0,0,.024-.66,2.945,2.945,0,0,0-3.1-3.036,3.1,3.1,0,0,0-3.216,3.372A3.124,3.124,0,0,0,126.48,13.1,2.88,2.88,0,0,0,129.48,10.924Zm2.052-4.476L134.16,13h.948l2.628-6.552h-.888l-2.208,5.736-2.208-5.736ZM140.076,13h.84V6.448h-.84Zm.42-7.788a.61.61,0,0,0,.612-.624.612.612,0,1,0-1.224,0A.61.61,0,0,0,140.5,5.212Zm2.748,1.236L145.872,13h.948l2.628-6.552h-.888l-2.208,5.736-2.208-5.736Zm8.16,3.264a3.113,3.113,0,0,0,3.12,3.384,2.768,2.768,0,0,0,2.6-1.548V13h.84V6.448h-.84v1.44a2.735,2.735,0,0,0-2.592-1.536A3.1,3.1,0,0,0,151.4,9.712Zm5.724.012a2.444,2.444,0,1,1-4.872-.012,2.392,2.392,0,0,1,2.436-2.628A2.441,2.441,0,0,1,157.128,9.724ZM161.088,13h.84V4.12h-.84Z" transform="translate(306 66)"/><g transform="translate(234 17.135)"><path class="b" d="M1.56,25H4.03V18.4H7.956L11.7,25h2.834l-4.16-7.176a6.193,6.193,0,0,0,3.874-5.668c0-3.458-2.678-6.136-6.6-6.136H1.56ZM7.384,8.36c2.808,0,4.316,1.534,4.316,3.8a4.045,4.045,0,0,1-4.342,3.926H4.03V8.36ZM16.978,25h11.44V22.582H19.474v-5.9h8.944V14.288H19.474V8.412h8.944V6.02H16.978Z" transform="translate(202 14.865)"/><path class="a" d="M7.332,25.26c3.848,0,6.266-2.7,6.266-5.616,0-3.536-2.808-4.6-5.434-5.512-2.21-.754-4.316-1.326-4.316-3.328C3.848,9.166,5.2,8,7.254,8a4.416,4.416,0,0,1,3.952,2.054L13.26,8.516A7.341,7.341,0,0,0,7.254,5.76c-3.432,0-5.98,2.236-5.98,5.1,0,3.432,2.756,4.472,5.33,5.3,2.288.7,4.394,1.4,4.394,3.484,0,1.872-1.482,3.25-3.692,3.25a5.349,5.349,0,0,1-4.654-2.73L.442,21.88A8.113,8.113,0,0,0,7.332,25.26ZM14.95,12.026H17.6v7.1C17.6,23.7,18.8,25,23.244,25h.364V22.66c-3.016,0-3.562-.52-3.562-3.562V12.026h3.562V9.79H20.046V5.214L17.6,6.9V9.79H14.95ZM26.364,25h2.5V20.814c-.078-2.08-.026-4.238-.026-4.394,0-2.99,1.378-4.238,3.432-4.238a3.5,3.5,0,0,1,2.314.676l1.04-2.314a5.752,5.752,0,0,0-2.964-.78,3.952,3.952,0,0,0-3.848,2.21V9.79H26.364Zm17.992.312A7.474,7.474,0,0,0,51.532,21l-2.106-1.118a5.32,5.32,0,0,1-5.07,3.224A5.377,5.377,0,0,1,38.74,18.24H52.026V17.2a7.49,7.49,0,0,0-7.8-7.722,7.8,7.8,0,0,0-7.9,8.008C36.322,21.932,39.494,25.312,44.356,25.312Zm-.13-13.624A4.925,4.925,0,0,1,49.5,16.03H38.87A5.418,5.418,0,0,1,44.226,11.688ZM60.008,25.312c4.16,0,5.9-2.73,5.9-4.732,0-3.094-2.756-3.8-5.2-4.42-2.158-.546-3.926-.832-3.926-2.34,0-1.248,1.066-2.262,3.12-2.262a4.772,4.772,0,0,1,3.848,1.768l1.95-1.352a7.17,7.17,0,0,0-5.8-2.522c-3.432,0-5.59,2.106-5.59,4.42,0,2.99,2.626,3.77,5.122,4.394,2.054.468,4.03.78,4.03,2.34,0,1.352-1.118,2.522-3.38,2.522a5.158,5.158,0,0,1-4.368-2.34l-2.106,1.378A7.386,7.386,0,0,0,60.008,25.312Zm13.858,0c4.16,0,5.9-2.73,5.9-4.732,0-3.094-2.756-3.8-5.2-4.42-2.158-.546-3.926-.832-3.926-2.34,0-1.248,1.066-2.262,3.12-2.262a4.772,4.772,0,0,1,3.848,1.768l1.95-1.352a7.17,7.17,0,0,0-5.8-2.522c-3.432,0-5.59,2.106-5.59,4.42,0,2.99,2.626,3.77,5.122,4.394,2.054.468,4.03.78,4.03,2.34,0,1.352-1.118,2.522-3.38,2.522a5.158,5.158,0,0,1-4.368-2.34L67.47,22.166A7.386,7.386,0,0,0,73.866,25.312Z" transform="translate(119 13.865)"/><g transform="translate(-246.861 -36)"><path class="c" d="M851.471,496.93l-11.421,8.678v2.661l-6.122-.131v-6.058l4.553-3.3v-5.915h4.494v2.443l8.4-6.488,16.768,11.758-5.633,3.847L851.471,497Z" transform="translate(-515.066 -442.954)"/><path class="d" d="M2003.537,1457a35.185,35.185,0,0,1-5.521,2.677c-.139.054-.277.109-.416.161v13.878h5.937V1457" transform="translate(-1664.496 -1393.641)"/><path class="d" d="M2003.537,1457a45.672,45.672,0,0,1-5.521,1.725l-.416.1v8.943h5.937V1457" transform="translate(-1678.49 -1387.08)"/><path class="d" d="M2003.587,1456.386c-1.325.85-2.764,1.77-4.264,2.83-.333.239-.863.592-1.372,1-.138.071-.352,18.85-.352,18.85h5.937" transform="translate(-1650.502 -1398.743)"/></g></g></g></svg>